<svg xmlns="http://www.w3.org/2000/svg" xmlns:xlink="http://www.w3.org/1999/xlink" width="1920" zoomAndPan="magnify" viewBox="0 0 1440 809.999993" height="1080" preserveAspectRatio="xMidYMid meet" version="1.2"><defs><clipPath id="baeb55b0bd"><path d="M 746.425781 231.53125 L 836.320312 231.53125 L 836.320312 321.425781 L 746.425781 321.425781 Z M 746.425781 231.53125 "/></clipPath><clipPath id="f8c4c3cdca"><path d="M 836.320312 276.480469 C 836.320312 251.65625 816.195312 231.53125 791.371094 231.53125 C 766.546875 231.53125 746.425781 251.65625 746.425781 276.480469 C 746.425781 301.300781 766.546875 321.425781 791.371094 321.425781 C 816.195312 321.425781 836.320312 301.300781 836.320312 276.480469 Z M 836.320312 276.480469 "/></clipPath><clipPath id="6f134e51a3"><path d="M 743.871094 126.777344 L 836.316406 126.777344 L 836.316406 219.21875 L 743.871094 219.21875 Z M 743.871094 126.777344 "/></clipPath><clipPath id="145dc477df"><path d="M 836.316406 173 C 836.316406 147.472656 815.621094 126.777344 790.09375 126.777344 C 764.566406 126.777344 743.871094 147.472656 743.871094 173 C 743.871094 198.527344 764.566406 219.21875 790.09375 219.21875 C 815.621094 219.21875 836.316406 198.527344 836.316406 173 Z M 836.316406 173 "/></clipPath><clipPath id="cf6b2ebc8b"><path d="M 848.316406 126.777344 L 940.757812 126.777344 L 940.757812 219.21875 L 848.316406 219.21875 Z M 848.316406 126.777344 "/></clipPath><clipPath id="60177ff775"><path d="M 940.757812 173 C 940.757812 147.472656 920.0625 126.777344 894.535156 126.777344 C 869.007812 126.777344 848.316406 147.472656 848.316406 173 C 848.316406 198.527344 869.007812 219.21875 940.757812 173 Z M 940.757812 173 "/></clipPath></defs><g id="9addc5de90"><g style="fill:#000000;fill-opacity:1;"><g transform="translate(454.718791, 582.107759)"><path style="stroke:none" d="M 7.171875 0 L 87.0625 -334.890625 L 205.71875 -334.890625 L 285.609375 0 L 219.59375 0 L 203.328125 -71.765625 L 89.46875 -71.765625 L 73.203125 0 Z M 102.859375 -132.046875 L 189.453125 -132.046875 L 150.703125 -303.3125 L 142.09375 -303.3125 Z M 102.859375 -132.046875 "/></g></g><g style="fill:#000000;fill-opacity:1;"><g transform="translate(743.174129, 582.107759)"><path style="stroke:none" d="M 151.65625 -262.171875 C 139.21875 -262.171875 128.53125 -266.554688 119.59375 -275.328125 C 110.664062 -284.097656 106.203125 -294.859375 106.203125 -307.609375 C 106.203125 -320.367188 110.664062 -331.132812 119.59375 -339.90625 C 128.53125 -348.675781 139.21875 -353.0625 151.65625 -353.0625 C 164.09375 -353.0625 174.773438 -348.675781 183.703125 -339.90625 C 192.640625 -331.132812 197.109375 -320.367188 197.109375 -307.609375 C 197.109375 -294.859375 192.640625 -284.097656 183.703125 -275.328125 C 174.773438 -266.554688 164.09375 -262.171875 151.65625 -262.171875 Z M 41.625 0 L 41.625 -57.40625 L 122 -57.40625 L 122 -179.875 L 47.359375 -179.875 L 47.359375 -237.296875 L 182.265625 -237.296875 L 182.265625 -57.40625 L 251.15625 -57.40625 L 251.15625 0 Z M 41.625 0 "/></g></g><g clip-rule="nonzero" clip-path="url(#baeb55b0bd)"><g clip-rule="nonzero" clip-path="url(#f8c4c3cdca)"><path style=" stroke:none;fill-rule:nonzero;fill:#000000;fill-opacity:1;" d="M 836.320312 231.53125 L 836.320312 321.425781 L 746.425781 321.425781 L 746.425781 231.53125 Z M 836.320312 231.53125 "/></g></g><g clip-rule="nonzero" clip-path="url(#6f134e51a3)"><g clip-rule="nonzero" clip-path="url(#145dc477df)"><path style=" stroke:none;fill-rule:nonzero;fill:#000000;fill-opacity:1;" d="M 836.316406 126.777344 L 836.316406 219.21875 L 743.871094 219.21875 L 743.871094 126.777344 Z M 836.316406 126.777344 "/></g></g><g clip-rule="nonzero" clip-path="url(#cf6b2ebc8b)"><g clip-rule="nonzero" clip-path="url(#60177ff775)"><path style=" stroke:none;fill-rule:nonzero;fill:#000000;fill-opacity:1;" d="M 940.757812 126.777344 L 940.757812 219.21875 L 848.316406 219.21875 L 848.316406 126.777344 Z M 940.757812 126.777344 "/></g></g></g></svg>
