<svg xmlns="http://www.w3.org/2000/svg" viewBox="75 293 1260 277" preserveAspectRatio="xMidYMid meet"><g style="fill:#0A0A0A;fill-opacity:1;"><g transform="translate(81.000002, 515.805227)"><path style="stroke:none" d="M 4.46875 0 L 54.3125 -208.890625 L 128.3125 -208.890625 L 178.15625 0 L 136.96875 0 L 126.828125 -44.765625 L 55.796875 -44.765625 L 45.65625 0 Z M 64.15625 -82.359375 L 118.171875 -82.359375 L 94 -189.1875 L 88.625 -189.1875 Z M 64.15625 -82.359375 "/></g><g transform="translate(260.926646, 515.805227)"><path style="stroke:none" d="M 94.59375 -163.53125 C 86.832031 -163.53125 80.164062 -166.265625 74.59375 -171.734375 C 69.03125 -177.203125 66.25 -183.914062 66.25 -191.875 C 66.25 -199.832031 69.03125 -206.546875 74.59375 -212.015625 C 80.164062 -217.484375 86.832031 -220.21875 94.59375 -220.21875 C 102.351562 -220.21875 109.015625 -217.484375 114.578125 -212.015625 C 120.148438 -206.546875 122.9375 -199.832031 122.9375 -191.875 C 122.9375 -183.914062 120.148438 -177.203125 114.578125 -171.734375 C 109.015625 -166.265625 102.351562 -163.53125 94.59375 -163.53125 Z M 25.96875 0 L 25.96875 -35.8125 L 76.09375 -35.8125 L 76.09375 -112.203125 L 29.546875 -112.203125 L 29.546875 -148.015625 L 113.6875 -148.015625 L 113.6875 -35.8125 L 156.65625 -35.8125 L 156.65625 0 Z M 25.96875 0 "/></g><g transform="translate(440.85329, 515.805227)"><path style="stroke:none" d="M 81.765625 4.171875 C 69.035156 4.171875 57.492188 1.039062 47.140625 -5.21875 C 36.796875 -11.488281 28.539062 -20.890625 22.375 -33.421875 C 16.207031 -45.953125 13.125 -61.46875 13.125 -79.96875 L 13.125 -128.90625 C 13.125 -147.007812 16.457031 -162.328125 23.125 -174.859375 C 29.789062 -187.398438 38.988281 -196.898438 50.71875 -203.359375 C 62.457031 -209.828125 75.988281 -213.0625 91.3125 -213.0625 C 107.226562 -213.0625 120.851562 -209.675781 132.1875 -202.90625 C 143.53125 -196.144531 152.1875 -187.046875 158.15625 -175.609375 C 164.125 -164.171875 167.109375 -151.390625 167.109375 -137.265625 L 167.109375 -133.6875 L 127.71875 -133.6875 L 127.71875 -137.265625 C 127.71875 -149.796875 124.484375 -159.296875 118.015625 -165.765625 C 111.554688 -172.234375 102.457031 -175.46875 90.71875 -175.46875 C 79.769531 -175.46875 70.664062 -171.785156 63.40625 -164.421875 C 56.144531 -157.054688 52.515625 -144.222656 52.515625 -125.921875 L 52.515625 -81.765625 C 52.515625 -49.535156 65.644531 -33.421875 91.90625 -33.421875 C 103.644531 -33.421875 112.546875 -36.601562 118.609375 -42.96875 C 124.679688 -49.332031 127.71875 -57.6875 127.71875 -68.03125 L 77.578125 -68.03125 L 77.578125 -105.640625 L 167.109375 -105.640625 L 167.109375 0 L 131.296875 0 L 131.296875 -23.28125 L 125.921875 -23.28125 C 123.535156 -15.519531 118.960938 -9.003906 112.203125 -3.734375 C 105.441406 1.535156 95.296875 4.171875 81.765625 4.171875 Z M 81.765625 4.171875 "/></g><g transform="translate(620.779964, 515.805227)"><path style="stroke:none" d="M 24.46875 0 L 24.46875 -208.890625 L 156.359375 -208.890625 L 156.359375 -171.28125 L 63.859375 -171.28125 L 63.859375 -123.546875 L 152.78125 -123.546875 L 152.78125 -85.9375 L 63.859375 -85.9375 L 63.859375 -37.59375 L 159.953125 -37.59375 L 159.953125 0 Z M 24.46875 0 "/></g><g transform="translate(800.70658, 515.805227)"><path style="stroke:none" d="M 18.203125 0 L 18.203125 -208.890625 L 95.1875 -208.890625 L 119.65625 -19.6875 L 125.03125 -19.6875 L 125.03125 -208.890625 L 164.421875 -208.890625 L 164.421875 0 L 87.4375 0 L 62.96875 -189.1875 L 57.59375 -189.1875 L 57.59375 0 Z M 18.203125 0 "/></g><g transform="translate(980.633195, 515.805227)"><path style="stroke:none" d="M 94.59375 -163.53125 C 86.832031 -163.53125 80.164062 -166.265625 74.59375 -171.734375 C 69.03125 -177.203125 66.25 -183.914062 66.25 -191.875 C 66.25 -199.832031 69.03125 -206.546875 74.59375 -212.015625 C 80.164062 -217.484375 86.832031 -220.21875 94.59375 -220.21875 C 102.351562 -220.21875 109.015625 -217.484375 114.578125 -212.015625 C 120.148438 -206.546875 122.9375 -199.832031 122.9375 -191.875 C 122.9375 -183.914062 120.148438 -177.203125 114.578125 -171.734375 C 109.015625 -166.265625 102.351562 -163.53125 94.59375 -163.53125 Z M 25.96875 0 L 25.96875 -35.8125 L 76.09375 -35.8125 L 76.09375 -112.203125 L 29.546875 -112.203125 L 29.546875 -148.015625 L 113.6875 -148.015625 L 113.6875 -35.8125 L 156.65625 -35.8125 L 156.65625 0 Z M 25.96875 0 "/></g><g transform="translate(1160.559927, 515.805227)"><path style="stroke:none" d="M 100.859375 51.921875 C 92.898438 51.921875 86.1875 49.132812 80.71875 43.5625 C 75.25 38 72.515625 31.238281 72.515625 23.28125 L 72.515625 2.390625 C 54.210938 -0.992188 39.9375 -9.796875 29.6875 -24.015625 C 19.445312 -38.242188 14.328125 -57.296875 14.328125 -81.171875 L 14.328125 -127.71875 C 14.328125 -154.570312 21.1875 -175.507812 34.90625 -190.53125 C 48.632812 -205.550781 67.4375 -213.0625 91.3125 -213.0625 C 115.1875 -213.0625 133.984375 -205.550781 147.703125 -190.53125 C 161.429688 -175.507812 168.296875 -154.570312 168.296875 -127.71875 L 168.296875 -81.171875 C 168.296875 -57.296875 163.171875 -38.242188 152.921875 -24.015625 C 142.679688 -9.796875 128.410156 -0.992188 110.109375 2.390625 L 110.109375 7.765625 C 110.109375 13.328125 112.597656 16.109375 117.578125 16.109375 L 136.078125 16.109375 L 136.078125 51.921875 Z M 91.3125 -31.625 C 105.632812 -31.625 115.476562 -36.097656 120.84375 -45.046875 C 126.21875 -54.003906 128.90625 -65.445312 128.90625 -79.375 L 128.90625 -129.515625 C 128.90625 -138.265625 127.613281 -146.269531 125.03125 -153.53125 C 122.445312 -160.789062 118.414062 -166.554688 112.9375 -170.828125 C 107.46875 -175.109375 100.257812 -177.25 91.3125 -177.25 C 82.363281 -177.25 75.101562 -175.109375 69.53125 -170.828125 C 63.957031 -166.554688 59.925781 -160.789062 57.4375 -153.53125 C 54.957031 -146.269531 53.71875 -138.265625 53.71875 -129.515625 L 53.71875 -79.375 C 53.71875 -65.445312 56.398438 -54.003906 61.765625 -45.046875 C 67.140625 -36.097656 76.988281 -31.625 91.3125 -31.625 Z M 91.3125 -31.625 "/></g></g></svg>
